<svg width="342" height="403" viewBox="0 0 342 403" fill="none" xmlns="http://www.w3.org/2000/svg">
<rect x="8.31091" y="162.217" width="86.0838" height="6.62183" stroke="#AE01D4" stroke-width="6.62183"/>
<rect x="259.933" y="162.217" width="72.8401" height="6.62183" stroke="#AE01D4" stroke-width="6.62183"/>
<rect x="256.622" y="370.801" width="79.4619" height="26.4873" stroke="#AE01D4" stroke-width="10"/>
<rect x="5" y="370.801" width="92.7056" height="26.4873" stroke="#AE01D4" stroke-width="10"/>
<rect x="274.886" y="190.418" width="42.9746" height="162.167" stroke="#AE01D4" stroke-width="10"/>
<rect x="23.2515" y="190.418" width="56.2183" height="162.167" stroke="#AE01D4" stroke-width="10"/>
<mask id="path-7-inside-1_1200_14618" fill="white">
<path fill-rule="evenodd" clip-rule="evenodd" d="M265.705 148.98H327.814C324.547 66.1492 256.312 0 172.615 0C88.9179 0 20.6829 66.1492 17.4163 148.98H79.5316C81.8729 100.598 122.654 62.076 172.618 62.076C222.583 62.076 263.364 100.598 265.705 148.98Z"/>
</mask>
<path d="M327.814 148.98V158.98H338.216L337.806 148.586L327.814 148.98ZM265.705 148.98L255.717 149.464L256.178 158.98H265.705V148.98ZM17.4163 148.98L7.42403 148.586L7.01411 158.98H17.4163V148.98ZM79.5316 148.98V158.98H89.0594L89.5199 149.464L79.5316 148.98ZM327.814 138.98H265.705V158.98H327.814V138.98ZM172.615 10C250.928 10 314.766 71.8943 317.822 149.374L337.806 148.586C334.328 60.4041 261.696 -10 172.615 -10V10ZM27.4085 149.374C30.4641 71.8943 94.3018 10 172.615 10V-10C83.534 -10 10.9017 60.4041 7.42403 148.586L27.4085 149.374ZM79.5316 138.98H17.4163V158.98H79.5316V138.98ZM89.5199 149.464C91.5959 106.563 127.834 72.076 172.618 72.076V52.076C117.474 52.076 72.1499 94.6327 69.5433 148.497L89.5199 149.464ZM172.618 72.076C217.403 72.076 253.641 106.563 255.717 149.464L275.694 148.497C273.087 94.6327 227.763 52.076 172.618 52.076V72.076Z" fill="#AE01D4" mask="url(#path-7-inside-1_1200_14618)"/>
</svg>
