<svg width="22" height="25" viewBox="0 0 22 25" fill="none" xmlns="http://www.w3.org/2000/svg">
<rect x="1.20001" y="9.79962" width="5.20038" height="0.400029" stroke="#AE01D4" stroke-width="0.400029"/>
<rect x="16.4007" y="9.79962" width="4.40032" height="0.400029" stroke="#AE01D4" stroke-width="0.400029"/>
<rect x="16.2007" y="22.4004" width="4.80035" height="1.60012" stroke="#AE01D4"/>
<rect x="1" y="22.4004" width="5.60041" height="1.60012" stroke="#AE01D4"/>
<rect x="17.502" y="11.7012" width="2.20023" height="9.40076" stroke="#AE01D4"/>
<rect x="2.30048" y="11.7012" width="3.00029" height="9.40076" stroke="#AE01D4"/>
<mask id="path-7-inside-1_1200_2140" fill="white">
<path fill-rule="evenodd" clip-rule="evenodd" d="M16.7493 8.9998H20.5013C20.3039 3.99601 16.1818 0 11.1257 0C6.06953 0 1.94745 3.99601 1.75 8.9998H5.50242C5.64389 6.07702 8.10748 3.74991 11.1259 3.74991C14.1442 3.74991 16.6078 6.07702 16.7493 8.9998Z"/>
</mask>
<path d="M20.5013 8.9998V9.9998H21.5416L21.5005 8.96037L20.5013 8.9998ZM16.7493 8.9998L15.7505 9.04814L15.7965 9.9998H16.7493V8.9998ZM1.75 8.9998L0.750778 8.96037L0.709762 9.9998H1.75V8.9998ZM5.50242 8.9998V9.9998H6.45519L6.50125 9.04814L5.50242 8.9998ZM20.5013 7.9998H16.7493V9.9998H20.5013V7.9998ZM11.1257 1C15.6434 1 19.3258 4.57053 19.5021 9.03922L21.5005 8.96037C21.282 3.42149 16.7202 -1 11.1257 -1V1ZM2.74922 9.03922C2.92555 4.57053 6.60791 1 11.1257 1V-1C5.53115 -1 0.969338 3.42149 0.750778 8.96037L2.74922 9.03922ZM5.50242 7.9998H1.75V9.9998H5.50242V7.9998ZM6.50125 9.04814C6.61619 6.67356 8.6255 4.74992 11.1259 4.74992V2.74991C7.58947 2.74991 4.6716 5.48048 4.50359 8.95145L6.50125 9.04814ZM11.1259 4.74992C13.6262 4.74992 15.6355 6.67356 15.7505 9.04814L17.7481 8.95145C17.5801 5.48048 14.6623 2.74991 11.1259 2.74991V4.74992Z" fill="#AE01D4" mask="url(#path-7-inside-1_1200_2140)"/>
</svg>
